<svg xmlns="http://www.w3.org/2000/svg" viewBox="0 0 1366 768" role="img">
  <defs>
    <style>
      .logo-st0 { fill: #170634; }
      .logo-st1 { fill: #ffffff; }
    </style>
  </defs>
  <polygon class="logo-st0" points="178.44 317.55 178.44 365.06 313.18 365.06 313.18 412.89 178.44 412.89 178.44 508.58 119.93 508.58 119.93 267.65 346.51 267.65 346.51 317.55 178.44 317.55" />
  <polygon class="logo-st0" points="541.8 458.67 541.8 508.57 383.48 508.57 383.48 267.65 441.99 267.65 441.99 458.67 541.8 458.67" />
  <path class="logo-st1" d="M559.71,278.23c-18.58,26.37-18.76,61.38-13,91.9,8.74,46.3,32.44,92.49,65.58,126.18,72.46,73.66,178.43-1.49,220.18-71.43,14.06-23.56,21.9-53.88,13.5-80.75-16.14-51.64-67.26-80.97-116.75-93.86-30.89-8.04-63.69-10.97-95.46-7.3-28,3.24-56.86,10.85-74.05,35.26M700.04,477.72c-52.07.62-102.28-35.72-110.96-88.49-4.58-27.85,3.56-57.76,22.47-78.65,31.2-34.48,88.03-43.69,128.64-21.26,64.51,35.63,69.72,141.64,2.62,177.99-12.81,6.94-27.63,10.23-42.77,10.41" />
  <polygon class="logo-st0" points="1183.09 267.65 1136.47 411.22 1067.22 267.65 1043.48 267.65 1043.48 364.39 1122.17 508.57 1163.13 508.57 1246.07 271.09 1246.07 267.65 1183.09 267.65" />
  <polygon class="logo-st0" points="925.23 267.65 971.85 411.22 1041.1 267.65 1064.84 267.65 1064.84 364.39 986.15 508.57 945.19 508.57 862.25 271.09 862.25 267.65 925.23 267.65" />
</svg>
